# xmcd
#
# Track frame offsets:
#	150
#	12086
#	24676
#	37088
#	48446
#	59065
#	71536
#	82089
#	94470
#	106843
#
# Disc length: 1598 seconds
#
# Revision: 0
# Processed by: cddbd v1.5.2PL0 Copyright (c) Steve Scherf et al.
# Submitted via: audiograbber 1.83.01
#
DISCID=89063c0a
DTITLE=George Jones - Sings The Great Songs Of Leon Payne
DYEAR=1971
DGENRE=Country
TTITLE0=They'll Never Take Her Love From Me
TTITLE1=Brothers Of A Bottle
TTITLE2=Blue Side Of Lonesome
TTITLE3=There's No Justice
TTITLE4=With Half A Heart
TTITLE5=Lifetime To Regret
TTITLE6=Let A Little Lovin' Come In
TTITLE7=Take Me
TTITLE8=The Selfishness In Man
TTITLE9=Things Have Gone To Pieces
EXTD=
EXTT0=
EXTT1=
EXTT2=
EXTT3=
EXTT4=
EXTT5=
EXTT6=
EXTT7=
EXTT8=
EXTT9=
PLAYORDER=
